<svg xmlns="http://www.w3.org/2000/svg" width="570.10212" height="140.79732" viewBox="0 0 570.10212 140.79732"><title>Risorsa 81</title><g id="Livello_2" data-name="Livello 2"><g id="Livello_1-2" data-name="Livello 1"><path d="M347.4029,53.48845H329.79877l.02871,32.93891c0,9.62552-4.12693,17.41265-13.75245,17.41265-9.63031,0-13.79556-7.78713-13.79556-17.41265V53.51957H284.72082L284.716,86.42736c0,19.02129,12.22761,34.43746,31.25127,34.43746,19.01884,0,31.43077-15.41617,31.43077-34.43746Z" style="fill:#009cde"/><rect x="506.14274" y="33.41672" width="17.51792" height="85.74888" style="fill:#009cde"/><polygon points="536.595 36.58 536.595 33.499 550.247 33.499 550.247 36.58 545.253 36.58 545.253 50.158 541.591 50.158 541.591 36.58 536.595 36.58" style="fill:#009cde"/><polygon points="557.314 33.5 561.211 44.954 561.257 44.954 564.941 33.5 570.102 33.5 570.102 50.158 566.672 50.158 566.672 38.352 566.624 38.352 562.542 50.158 559.718 50.158 555.636 38.469 555.588 38.469 555.588 50.158 552.16 50.158 552.16 33.5 557.314 33.5" style="fill:#009cde"/><path d="M270.40107,52.77245c-15.1002-3.48538-24.62518,11.51665-25.02255,12.321-.1939.395-.20108.62483-.869.608-.553-.01191-.61522-.608-.61522-.608L242.02,53.61753H226.32615v65.49233h17.59214v-35.45c0-2.8965,7.79906-16.78542,22.91359-13.2115,7.64346,1.80976,10.88708,5.0534,10.88708,5.0534V55.54928a28.10653,28.10653,0,0,0-7.31789-2.77683" style="fill:#009cde"/><path d="M388.32465,69.36661a17.55266,17.55266,0,1,1-17.549,17.549,17.55407,17.55407,0,0,1,17.549-17.549m-17.05111,71.3141V117.116l.00479.00482.00478-8.826s.02634-.70613.66307-.71337c.56734-.00716.69423.3687.83307.71337,1.33333,3.32021,8.668,15.962,24.94592,11.99778a34.67561,34.67561,0,1,0-44.08928-33.37694v53.76506Z" style="fill:#009cde"/><path d="M481.89532,86.91587a17.55266,17.55266,0,1,1-17.55145-17.549,17.55509,17.55509,0,0,1,17.55145,17.549M481.395,119.139h17.63761V86.91587a34.67441,34.67441,0,1,0-44.08928,33.37461c16.27795,3.9665,23.61259-8.67758,24.94593-11.99545.13883-.34467.26332-.72053.83306-.71571.63673.00957.66307.71571.66307.71571" style="fill:#009cde"/><path d="M175.99834,48.224H168.927v55.92189l7.26284.18672c14.89671,0,24.49113-1.35485,24.49113-28.14164,0-25.68566-8.46932-27.967-24.68264-27.967m-4.77565,70.77789h-20.0099V33.38232h21.47012c25.99683,0,45.7147,4.7709,45.7147,42.80865,0,37.6738-20.886,42.81092-47.17492,42.81092" style="fill:#009cde"/><path d="M76.05087,29.98905C66.1436,20.08646,56.69111,10.64652,53.87792,0,51.0646,10.64652,41.61059,20.08646,31.705,29.98905,16.84646,44.83818,0,61.66742,0,86.90838a53.8795,53.8795,0,1,0,107.759,0c0-25.23931-16.84507-42.0702-31.70813-56.91933M22.90047,99.46319C19.59681,99.351,7.40431,78.33555,30.02336,55.95932L44.99129,72.30924a1.27945,1.27945,0,0,1-.09991,1.90927c-3.57172,3.66322-18.79529,18.92938-20.68747,24.20805-.39056,1.08955-.961,1.04834-1.30344,1.03663M53.87957,127.161A18.53041,18.53041,0,0,1,35.349,108.63041,19.30921,19.30921,0,0,1,39.96771,96.3905C43.309,92.30474,53.87709,80.81316,53.87709,80.81316S64.28339,92.47342,67.76153,96.3515a18.12182,18.12182,0,0,1,4.64858,12.27891A18.53058,18.53058,0,0,1,53.87957,127.161M89.347,97.111c-.39939.87346-1.30538,2.33166-2.5282,2.37618-2.17965.07938-2.41256-1.03746-4.0236-3.42177-3.537-5.23416-34.404-37.49382-40.17746-43.73278-5.07829-5.48746-.71512-9.35616,1.30881-11.38353,2.53922-2.54377,9.9511-9.95111,9.9511-9.95111S75.97811,51.96686,85.18433,66.29437,91.2178,93.01972,89.347,97.111" style="fill:#009cde"/></g></g></svg>