<svg xmlns="http://www.w3.org/2000/svg" width="249" height="249" viewBox="0 0 249 249"><radialGradient id="a" cx="124.016" cy="220.12" r="32.624" gradientTransform="matrix(1 0 0 .237 0 167.96)" gradientUnits="userSpaceOnUse"><stop offset="0" stop-color="#323232" stop-opacity=".92"/><stop offset=".236" stop-color="#272727" stop-opacity=".644"/><stop offset=".643" stop-color="#0B0B0B" stop-opacity=".167"/><stop offset=".785" stop-opacity="0"/></radialGradient><ellipse fill="url(#a)" cx="124.016" cy="220.12" rx="34.084" ry="7.039"/><linearGradient id="b" gradientUnits="userSpaceOnUse" x1="122.474" y1="169.425" x2="122.474" y2="14.673"><stop offset="0" stop-color="#3D6A06"/><stop offset=".16" stop-color="#588710"/><stop offset=".33" stop-color="#6D9D18"/><stop offset=".513" stop-color="#7BAE1E"/><stop offset=".721" stop-color="#84B721"/><stop offset="1" stop-color="#87BA22"/></linearGradient><path fill="url(#b)" d="M111.974 204.34h22.75c-1.39-29.56-9.992-123.874-24.5-182.5 2.625 40.25 5.5 174 1.75 182.5z"/><linearGradient id="c" gradientUnits="userSpaceOnUse" x1="115.779" y1="204.597" x2="115.779" y2="22.097"><stop offset="0" stop-color="#BBE882"/><stop offset=".145" stop-color="#BEE988" stop-opacity=".918"/><stop offset=".344" stop-color="#C8EC9A" stop-opacity=".804"/><stop offset=".576" stop-color="#D8F2B7" stop-opacity=".672"/><stop offset=".83" stop-color="#EEF9E0" stop-opacity=".527"/><stop offset="1" stop-color="#FFF" stop-opacity=".43"/></linearGradient><path opacity=".28" fill="url(#c)" d="M111.974 204.597h9.284c1.14-66.734-11.034-182.5-11.034-182.5 2.625 40.25 5.5 174 1.75 182.5z"/><linearGradient id="d" gradientUnits="userSpaceOnUse" x1="119.343" y1="195.483" x2="119.343" y2="32.756"><stop offset="0" stop-color="#48790B"/><stop offset=".822" stop-color="#FFF" stop-opacity=".43"/></linearGradient><path opacity=".33" fill="url(#d)" d="M112.814 199.318l9.66 2.81s-.635-23.753 5.832-34.502c1.868-12.285-13.484-124.622-17.574-143.7-.17-.7-.337-1.397-.508-2.085 2.394 36.71 4.995 151.168 2.59 177.478z"/><g><linearGradient id="e" gradientUnits="userSpaceOnUse" x1="107.103" y1="218.778" x2="107.103" y2="163.132"><stop offset="0" stop-color="#5E7814"/><stop offset=".509" stop-color="#8AA21F"/><stop offset="1" stop-color="#B1C628"/></linearGradient><path fill="url(#e)" d="M111.35 221.59l14.374.626c.344-27.89-9.75-76.125-37.25-94.875 14 17.376 24.125 38.626 22.875 94.25z"/><linearGradient id="f" gradientUnits="userSpaceOnUse" x1="105.216" y1="209.459" x2="106.073" y2="164.638"><stop offset="0" stop-color="#82AF10"/><stop offset=".822" stop-color="#FFF" stop-opacity="0"/></linearGradient><path opacity=".17" fill="url(#f)" d="M90.414 129.87c13.04 16.99 22.242 38.75 21.047 91.92l9.826.426c.345-10.73.594-67.31-30.872-92.346z"/></g><g><linearGradient id="g" gradientUnits="userSpaceOnUse" x1="141.883" y1="220.544" x2="141.883" y2="170.463"><stop offset="0" stop-color="#5E7814"/><stop offset=".142" stop-color="#758E1A"/><stop offset=".345" stop-color="#8FA620"/><stop offset=".553" stop-color="#A2B824"/><stop offset=".768" stop-color="#ADC327"/><stop offset="1" stop-color="#B1C628"/></linearGradient><path fill="url(#g)" d="M138.662 222.528c.446 2-14.375 3.438-14.875 3s-10.75-68.875 37.438-62c-26.126 1.125-28.125 36.938-22.563 59z"/><linearGradient id="h" gradientUnits="userSpaceOnUse" x1="129.596" y1="224.365" x2="129.596" y2="167.578"><stop offset="0" stop-color="#FFF"/><stop offset="1" stop-color="#FFF" stop-opacity="0"/></linearGradient><path opacity=".08" fill="url(#h)" d="M123.784 225.528c.286.25 5.257-.113 9.377-.845-.61-5.772-3.523-37.26 3.49-55.863-19.457 15.41-13.253 56.37-12.866 56.708z"/></g><g><radialGradient id="i" cx="364.971" cy="190.309" r="34.653" gradientTransform="matrix(.176 0 0 .186 64.213 154.668)" gradientUnits="userSpaceOnUse"><stop offset="0" stop-color="#323232"/><stop offset=".293" stop-color="#252525" stop-opacity=".671"/><stop offset=".828" stop-color="#040404" stop-opacity=".07"/><stop offset=".89" stop-opacity="0"/></radialGradient><ellipse opacity=".47" fill="url(#i)" cx="128.462" cy="190.045" rx="6.623" ry="6.096"/><radialGradient id="j" cx="309.772" cy="190.309" r="34.653" gradientTransform="matrix(.176 0 0 .186 64.213 154.668)" gradientUnits="userSpaceOnUse"><stop offset="0" stop-color="#323232"/><stop offset=".293" stop-color="#252525" stop-opacity=".671"/><stop offset=".828" stop-color="#040404" stop-opacity=".07"/><stop offset=".89" stop-opacity="0"/></radialGradient><ellipse opacity=".47" fill="url(#j)" cx="118.745" cy="190.045" rx="6.623" ry="6.096"/><circle fill="#FFF" cx="118.745" cy="190.044" r="3.797"/><circle fill="#FFF" cx="128.276" cy="190.044" r="3.797"/></g><g fill="#A0CB29"><path d="M91.724 212.716l5.375 9.25h3M106.724 225.966h6.5L103.6 200.09M144.35 224.34h4.25l3.124-20M155.224 219.09h3.625l1.75-7.374"/></g></svg>